<svg width="28" height="27" viewBox="0 0 28 27" fill="none" xmlns="http://www.w3.org/2000/svg">
<path d="M7.27001 9.5918V17.7707H6.032V10.8298H5.98408L4.02722 12.1078V10.9257L6.06794 9.5918H7.27001Z" fill="white"/>
<path d="M12.246 17.8825C11.6736 17.8825 11.1678 17.784 10.7285 17.587C10.2918 17.3899 9.94971 17.1184 9.70211 16.7723C9.4545 16.4262 9.33203 16.0321 9.3347 15.5902C9.33203 15.2441 9.40259 14.9259 9.54636 14.6357C9.69279 14.3428 9.89114 14.0992 10.1414 13.9049C10.3917 13.7079 10.6712 13.5827 10.9801 13.5295V13.4816C10.5727 13.383 10.2466 13.1647 10.0016 12.8266C9.75669 12.4885 9.63555 12.0998 9.63821 11.6605C9.63555 11.2425 9.74604 10.8697 9.96968 10.5423C10.196 10.2121 10.5061 9.95255 10.9002 9.76352C11.2942 9.5745 11.7428 9.47998 12.246 9.47998C12.7439 9.47998 13.1885 9.57583 13.5799 9.76752C13.9739 9.95655 14.2841 10.2161 14.5104 10.5463C14.7367 10.8737 14.8512 11.2451 14.8538 11.6605C14.8512 12.0998 14.726 12.4885 14.4784 12.8266C14.2308 13.1647 13.9087 13.383 13.512 13.4816V13.5295C13.8182 13.5827 14.0937 13.7079 14.3387 13.9049C14.5863 14.0992 14.7833 14.3428 14.9297 14.6357C15.0788 14.9259 15.1547 15.2441 15.1573 15.5902C15.1547 16.0321 15.0295 16.4262 14.7819 16.7723C14.5343 17.1184 14.1909 17.3899 13.7516 17.587C13.315 17.784 12.8131 17.8825 12.246 17.8825ZM12.246 16.8721C12.5841 16.8721 12.877 16.8162 13.1246 16.7044C13.3722 16.5899 13.5639 16.4315 13.6997 16.2291C13.8355 16.0241 13.9047 15.7845 13.9074 15.5103C13.9047 15.2254 13.8301 14.9738 13.6837 14.7555C13.5399 14.5372 13.3443 14.3655 13.0967 14.2403C12.8491 14.1152 12.5655 14.0526 12.246 14.0526C11.9239 14.0526 11.6377 14.1152 11.3874 14.2403C11.1371 14.3655 10.9401 14.5372 10.7963 14.7555C10.6526 14.9738 10.582 15.2254 10.5847 15.5103C10.582 15.7845 10.6473 16.0241 10.7804 16.2291C10.9162 16.4315 11.1092 16.5899 11.3594 16.7044C11.6097 16.8162 11.9052 16.8721 12.246 16.8721ZM12.246 13.0662C12.5176 13.0662 12.7585 13.0116 12.9689 12.9025C13.1792 12.7933 13.3443 12.6416 13.4641 12.4472C13.5865 12.2529 13.6491 12.0252 13.6518 11.7643C13.6491 11.5087 13.5879 11.2851 13.4681 11.0934C13.3509 10.9017 13.1872 10.7539 12.9768 10.6501C12.7665 10.5436 12.5229 10.4904 12.246 10.4904C11.9638 10.4904 11.7162 10.5436 11.5032 10.6501C11.2929 10.7539 11.1291 10.9017 11.012 11.0934C10.8949 11.2851 10.8376 11.5087 10.8403 11.7643C10.8376 12.0252 10.8962 12.2529 11.016 12.4472C11.1358 12.6416 11.3009 12.7933 11.5112 12.9025C11.7242 13.0116 11.9691 13.0662 12.246 13.0662Z" fill="white"/>
<path d="M19.0082 16.3969V10.9975H20.0824V16.3969H19.0082ZM16.8476 14.2323V13.1621H22.247V14.2323H16.8476Z" fill="white"/>
<path d="M13.5205 0.224609C20.8637 0.224641 26.8154 6.16876 26.8154 13.5C26.8154 20.8312 20.8637 26.7754 13.5205 26.7754C6.17731 26.7754 0.224609 20.8313 0.224609 13.5C0.224609 6.16874 6.17731 0.224609 13.5205 0.224609Z" stroke="white" stroke-width="0.45"/>
</svg>
