<svg width="21" height="19" viewBox="0 0 21 19" fill="none" xmlns="http://www.w3.org/2000/svg">
<path d="M18.5249 2.7143H17.0215C16.9902 2.7143 16.9624 2.72273 16.9332 2.72825V1.49114C16.9332 0.668859 16.0602 0 14.9868 0H1.94641C0.873058 0 0 0.668859 0 1.49114V15.3977C0 16.22 0.873058 16.8889 1.94641 16.8889H4.23331V17.5622C4.23331 18.355 5.07291 19 6.10531 19H18.5249C19.5573 19 20.3969 18.355 20.3969 17.5622V4.15212C20.3969 3.35929 19.5573 2.7143 18.5249 2.7143ZM0.769675 15.3977V1.49114C0.769675 1.00166 1.29773 0.603191 1.94641 0.603191H14.9868C15.6355 0.603191 16.1636 1.00166 16.1636 1.49114V15.3977C16.1636 15.8872 15.6355 16.2857 14.9868 16.2857H1.94641C1.29773 16.2857 0.769675 15.8872 0.769675 15.3977ZM19.6271 17.5622C19.6271 18.0225 19.1326 18.3968 18.5249 18.3968H6.10531C5.49759 18.3968 5.00298 18.0225 5.00298 17.5622V16.8889H14.9868C16.0602 16.8889 16.9332 16.22 16.9332 15.3977V3.30351C16.9624 3.30903 16.9902 3.31746 17.0215 3.31746H18.5249C19.1326 3.31746 19.6271 3.69179 19.6271 4.15212V17.5622Z" fill="white"/>
</svg>
