<svg width="13" height="13" viewBox="0 0 13 13" fill="none" xmlns="http://www.w3.org/2000/svg">
<path d="M9.65647 4.83398H8.49018C8.44533 4.58477 8.36184 4.36547 8.23973 4.17607C8.11762 3.98668 7.9681 3.82594 7.79116 3.69386C7.61423 3.56178 7.41611 3.4621 7.19681 3.39481C6.98 3.32753 6.74948 3.29389 6.50526 3.29389C6.06417 3.29389 5.66918 3.40478 5.32029 3.62658C4.97389 3.84837 4.69977 4.17358 4.49791 4.60222C4.29854 5.03085 4.19886 5.55418 4.19886 6.17221C4.19886 6.79523 4.29854 7.32105 4.49791 7.74968C4.69977 8.17832 4.97514 8.50229 5.32403 8.72159C5.67291 8.94089 6.06541 9.05054 6.50152 9.05054C6.74325 9.05054 6.97252 9.01814 7.18933 8.95335C7.40863 8.88606 7.60675 8.78763 7.78369 8.65804C7.96062 8.52845 8.11015 8.37021 8.23226 8.1833C8.35686 7.99391 8.44283 7.7771 8.49018 7.53288L9.65647 7.53661C9.59417 7.91291 9.4733 8.25931 9.29387 8.5758C9.11694 8.8898 8.88891 9.16144 8.6098 9.3907C8.33318 9.61748 8.01669 9.79317 7.66033 9.91777C7.30397 10.0424 6.9152 10.1047 6.49405 10.1047C5.83116 10.1047 5.24054 9.94768 4.72219 9.63368C4.20385 9.31719 3.79515 8.86488 3.4961 8.27675C3.19955 7.68863 3.05127 6.98711 3.05127 6.17221C3.05127 5.35482 3.20079 4.6533 3.49984 4.06767C3.79889 3.47954 4.20758 3.02848 4.72593 2.71448C5.24428 2.39799 5.83365 2.23975 6.49405 2.23975C6.90025 2.23975 7.27904 2.29831 7.63042 2.41544C7.9843 2.53007 8.30203 2.69953 8.58364 2.92382C8.86524 3.14561 9.09825 3.41724 9.28266 3.73872C9.46707 4.0577 9.59167 4.42279 9.65647 4.83398Z" fill="white"/>
<circle cx="6.46786" cy="6.46786" r="6.26035" stroke="white" stroke-width="0.415021"/>
</svg>
