<svg width="42" height="42" viewBox="0 0 42 42" fill="none" xmlns="http://www.w3.org/2000/svg">
<g clip-path="url(#clip0_326_79)">
<path d="M19.2417 41.9248C10.4335 41.3188 2.69857 34.3461 0.51606 25.9053C-1.49738 17.1521 2.50187 7.29535 10.3053 2.7264C15.325 -0.284141 21.6224 -0.660476 27.1782 0.907491C34.0395 3.02477 39.2622 9.15562 41.0962 15.9971C42.7436 22.3002 41.5561 29.4566 37.1781 34.4248C33.2122 39.3828 26.8744 42.2407 20.5366 41.9847C20.1041 41.976 19.6731 41.9558 19.2421 41.9254L19.2417 41.9248ZM24.4904 40.9327C26.0713 40.7938 25.7936 40.3064 24.3559 40.1835C21.7872 39.6874 19.0146 39.6744 16.5356 40.545C18.7181 41.6009 21.6166 41.329 24.0594 41.0137L24.4904 40.9327ZM16.7092 39.5384C17.8373 38.3828 16.6614 35.6203 15.6751 34.5269C13.4721 33.3987 11.7639 31.5532 9.74886 30.1618C8.23122 29.6079 6.75105 30.6623 5.28418 31.0195C5.27767 32.4745 5.18308 34.1176 6.45874 35.13C8.55882 37.2113 11.0937 39.0365 13.9544 39.8653C14.8738 39.9072 15.8385 39.8523 16.7092 39.5384ZM28.7875 39.5963C32.4424 38.014 35.8716 35.4728 37.9326 32.0131C38.6746 31.0181 39.2199 29.2752 37.2818 29.8523C34.8462 31.3883 32.6477 33.2903 30.1528 34.7467C28.64 35.9472 27.5509 37.6003 26.4748 39.1797C26.8494 40.0562 28.0687 39.8465 28.7875 39.5963ZM31.265 33.2411C33.1019 31.7282 35.7617 30.7534 36.7264 28.4581C37.1617 26.653 37.1964 24.7858 37.3772 22.9447C35.5462 21.3146 33.2986 20.2082 31.1002 19.1639C28.9263 19.3389 27.1705 21.2741 25.4522 22.5296C24.5367 23.0358 24.7725 24.1755 24.5237 25.0505C24.191 27.0927 23.8049 29.1306 23.5836 31.1902C25.2931 32.4586 27.2009 33.6244 29.2792 34.1132C30.0313 34.1233 30.6547 33.6128 31.265 33.2411ZM18.1598 33.5593C19.8231 32.9214 22.0259 32.4413 22.8069 30.6724C23.3854 28.1934 23.708 25.6565 24.0146 23.1327C22.3614 21.5547 20.5955 19.8914 18.4274 19.0685C16.5588 19.0396 14.9736 20.3658 13.3093 21.0905C11.0705 21.6994 10.293 23.743 10.195 25.8532C9.53827 27.9403 10.2921 30.0837 12.1798 31.2336C13.8287 32.4528 15.9484 34.3981 18.1598 33.5593ZM4.23183 30.6333C2.88182 28.1297 1.95082 25.3875 1.57911 22.5672C0.244019 22.8362 1.45748 26.1222 1.82542 27.463C2.45487 29.2752 3.41783 30.94 4.41638 32.5671C4.59905 31.8974 4.70724 31.2321 4.23183 30.6333ZM3.6504 19.4879C4.23993 18.6433 5.17831 17.9765 5.53193 17.0118C6.15603 14.0912 7.1741 11.2719 8.63012 8.66098C8.56865 6.97412 6.69001 5.94925 5.75467 7.80808C3.08923 11.249 0.998411 15.4425 0.906424 19.8669C0.555978 21.3855 1.8733 22.4891 2.63204 20.6927C2.97207 20.2906 3.31138 19.89 3.6504 19.4879ZM37.9718 21.5793C39.1014 20.0925 40.662 18.328 40.257 16.3147C39.5498 12.4968 37.5943 8.87171 34.5903 6.38359C33.6994 6.00436 32.0694 4.60908 31.4474 5.92698C30.5276 7.69758 28.2409 9.37156 29.0653 11.5766C29.7711 13.7534 30.286 16.0283 31.3158 18.0777C33.2105 19.5602 35.4046 20.7115 37.6102 21.6849L37.9718 21.5793ZM12.7724 20.59C14.5215 19.7049 16.2194 18.7257 17.9261 17.7596C18.5003 15.7463 19.222 13.7781 19.8946 11.7976C19.9886 9.65605 18.0823 8.1173 16.8081 6.61543C15.5556 4.60634 13.4376 6.14726 11.8922 6.88214C8.49069 8.70321 7.70982 12.7122 6.55406 16.0587C6.71445 17.3112 7.85908 18.3569 8.69448 19.2941C9.84909 20.4555 11.1472 22.0089 12.7724 20.59ZM25.3169 9.76453C26.2208 9.64015 27.2318 9.73126 28.0721 9.47454C29.3275 8.11861 30.434 6.52996 30.9576 4.74764C30.3255 2.95101 28.2327 2.13224 26.552 1.52073C24.4115 0.882151 22.119 0.56944 19.8975 0.821738C18.2935 1.64281 15.4167 4.02536 17.041 5.87218C18.2313 7.29219 19.4968 8.64552 20.787 9.97484C22.2998 9.98974 23.8083 9.87127 25.3169 9.76453Z" fill="white"/>
</g>
<defs>
<clipPath id="clip0_326_79">
<rect width="41.8047" height="42" fill="white"/>
</clipPath>
</defs>
</svg>
