<svg width="21" height="21" viewBox="0 0 21 21" fill="none" xmlns="http://www.w3.org/2000/svg">
<g clip-path="url(#clip0_326_89)">
<path d="M5.56359 0.195882C5.59551 0.212903 5.62744 0.229925 5.66033 0.247462C6.09489 0.508649 6.38655 0.922931 6.52576 1.40807C6.55483 1.54309 6.55202 1.67958 6.55296 1.81708C6.55418 1.86072 6.55418 1.86072 6.55541 1.90524C6.55572 1.94812 6.55572 1.94812 6.55603 1.99187C6.55639 2.01755 6.55676 2.04323 6.55714 2.06968C6.54317 2.15503 6.54317 2.15503 6.42562 2.39013C6.98163 2.39013 7.53763 2.39013 8.11049 2.39013C8.11049 2.14445 8.11049 1.89878 8.11049 1.64565C8.2074 1.08575 8.45138 0.674552 8.89415 0.313431C9.41022 -0.00831027 9.97003 -0.0815079 10.5642 0.0255273C10.839 0.108806 11.0634 0.249672 11.2843 0.43098C11.3121 0.453457 11.34 0.475933 11.3687 0.499091C11.7206 0.814537 11.9229 1.28706 11.9587 1.75325C11.9676 2.00454 11.9398 2.10156 11.8329 2.35095C12.3889 2.36388 12.9449 2.37681 13.5178 2.39013C13.5145 2.25032 13.5113 2.11051 13.508 1.96647C13.5054 1.6362 13.511 1.353 13.6745 1.05791C13.692 1.02402 13.7095 0.990125 13.7276 0.955206C13.9344 0.58213 14.1985 0.351205 14.5757 0.156699C14.6212 0.132227 14.6212 0.132227 14.6677 0.107261C15.0717 -0.0752263 15.6535 -0.0784353 16.072 0.0636389C16.1359 0.0924913 16.1988 0.123516 16.2606 0.156699C16.3116 0.182989 16.3116 0.182989 16.3636 0.20981C16.8279 0.46793 17.1201 0.861777 17.2914 1.36341C17.3255 1.52153 17.334 1.67281 17.3356 1.83422C17.336 1.86233 17.3364 1.89045 17.3369 1.91941C17.3338 2.1067 17.2882 2.22702 17.201 2.39013C17.2377 2.38931 17.2744 2.38849 17.3122 2.38765C17.4507 2.38495 17.5891 2.383 17.7276 2.38152C17.7871 2.38074 17.8466 2.37968 17.9061 2.37831C18.5436 2.364 19.0582 2.50413 19.5421 2.94604C19.9799 3.41542 20.0793 3.93453 20.0765 4.55329C20.0767 4.61325 20.0769 4.67322 20.0772 4.73318C20.0777 4.89713 20.0776 5.06108 20.0773 5.22503C20.0771 5.40218 20.0776 5.57932 20.078 5.75646C20.0786 6.10318 20.0787 6.44989 20.0785 6.79661C20.0783 7.0785 20.0784 7.36038 20.0786 7.64227C20.0786 7.68242 20.0786 7.72258 20.0787 7.76395C20.0787 7.84554 20.0788 7.92712 20.0788 8.00871C20.0794 8.77338 20.0792 9.53805 20.0787 10.3027C20.0783 11.0018 20.0788 11.7009 20.0798 12.4C20.0807 13.1184 20.0811 13.8368 20.0808 14.5552C20.0807 14.9583 20.0808 15.3614 20.0815 15.7645C20.0821 16.1076 20.0821 16.4508 20.0814 16.7939C20.0811 16.9689 20.081 17.1438 20.0816 17.3188C20.0821 17.4792 20.0819 17.6396 20.0812 17.8C20.081 17.8578 20.0812 17.9156 20.0816 17.9733C20.0856 18.5854 19.9226 19.0856 19.5054 19.5425C19.0065 20.0079 18.4565 20.0794 17.8074 20.0769C17.7376 20.077 17.6678 20.0773 17.598 20.0775C17.4067 20.0781 17.2156 20.0779 17.0243 20.0776C16.8179 20.0774 16.6114 20.0779 16.4049 20.0783C16.0007 20.079 15.5965 20.079 15.1922 20.0788C14.8636 20.0787 14.535 20.0787 14.2064 20.0789C14.1362 20.079 14.1362 20.079 14.0646 20.079C13.9696 20.0791 13.8745 20.0792 13.7795 20.0792C12.8883 20.0798 11.9971 20.0795 11.1059 20.0791C10.2909 20.0787 9.47583 20.0792 8.6608 20.0801C7.82359 20.0811 6.98638 20.0815 6.14917 20.0812C5.67927 20.0811 5.20938 20.0812 4.73948 20.0819C4.33947 20.0824 3.93947 20.0825 3.53946 20.0818C3.33545 20.0814 3.13145 20.0814 2.92744 20.082C2.74051 20.0825 2.55359 20.0823 2.36666 20.0816C2.29921 20.0814 2.23176 20.0815 2.16432 20.0819C1.52456 20.0855 1.00257 19.9476 0.518776 19.5058C0.0809742 19.0364 -0.0183512 18.5173 -0.0155903 17.8985C-0.0157541 17.8386 -0.0159691 17.7786 -0.0162301 17.7186C-0.0167946 17.5547 -0.0166303 17.3907 -0.0163407 17.2268C-0.0161549 17.0496 -0.0166459 16.8725 -0.0170468 16.6954C-0.0177198 16.3486 -0.0177533 16.0019 -0.0175478 15.6552C-0.0173893 15.3733 -0.0174461 15.0914 -0.0176554 14.8095C-0.0176848 14.7694 -0.0177143 14.7292 -0.0177445 14.6879C-0.0178045 14.6063 -0.0178645 14.5247 -0.0179251 14.4431C-0.0184627 13.6784 -0.0182498 12.9138 -0.0178001 12.1491C-0.017411 11.45 -0.0179185 10.7509 -0.018856 10.0518C-0.019812 9.33341 -0.0201879 8.61504 -0.0199274 7.89667C-0.0197906 7.49357 -0.0198775 7.09047 -0.0205641 6.68737C-0.0211414 6.34422 -0.0211652 6.00107 -0.0204828 5.65792C-0.0201496 5.48295 -0.0200646 5.30799 -0.0206652 5.13303C-0.0212089 4.97263 -0.0210197 4.81225 -0.020264 4.65186C-0.020117 4.59406 -0.0202302 4.53627 -0.0206407 4.47847C-0.0246757 3.86644 0.138301 3.3662 0.55551 2.90931C1.03172 2.46513 1.5537 2.37096 2.17916 2.38279C2.234 2.38338 2.28885 2.38391 2.3437 2.38439C2.47662 2.38577 2.60951 2.38769 2.74241 2.39013C2.74139 2.3655 2.74036 2.34087 2.7393 2.31549C2.70613 1.39714 2.70613 1.39714 2.93833 0.979543C2.96386 0.931811 2.96386 0.931811 2.98991 0.883116C3.24092 0.464058 3.62652 0.193277 4.08122 0.03517C4.57741 -0.0811637 5.11388 -0.0477122 5.56359 0.195882ZM4.41259 1.67504C4.29964 1.83144 4.30523 1.97537 4.30729 2.16483C4.30809 2.23918 4.3089 2.31353 4.30974 2.39013C4.56834 2.39013 4.82695 2.39013 5.0934 2.39013C5.07077 2.28992 5.04814 2.18971 5.02483 2.08646C5.01469 2.03951 5.01469 2.03951 5.00435 1.99161C4.9642 1.8231 4.92584 1.71289 4.77993 1.60647C4.62239 1.58397 4.54234 1.57944 4.41259 1.67504ZM9.717 1.80239C9.70236 1.91538 9.69791 1.99763 9.70475 2.1085C9.70879 2.20144 9.71283 2.29438 9.717 2.39013C9.9756 2.39013 10.2342 2.39013 10.5007 2.39013C10.4619 2.28669 10.4231 2.18325 10.3831 2.07667C10.3692 2.01417 10.3565 1.95133 10.3464 1.8881C10.3228 1.77701 10.311 1.73137 10.2362 1.64321C9.99679 1.54346 9.87241 1.60499 9.717 1.80239ZM15.1879 1.67504C15.075 1.83144 15.0806 1.97537 15.0826 2.16483C15.0834 2.23918 15.0842 2.31353 15.0851 2.39013C15.3437 2.39013 15.6023 2.39013 15.8687 2.39013C15.8461 2.28992 15.8235 2.18971 15.8002 2.08646C15.79 2.03951 15.79 2.03951 15.7797 1.99161C15.7395 1.8231 15.7012 1.71289 15.5553 1.60647C15.3977 1.58397 15.3177 1.57944 15.1879 1.67504ZM1.67636 4.08556C1.17605 4.84747 1.56692 5.90634 1.56692 6.81782C7.15286 6.81782 12.7388 6.81782 18.494 6.81782C18.6155 5.40941 18.6155 5.40941 18.3764 4.075C18.2375 3.98238 18.1799 3.98709 18.0154 3.98774C17.9401 3.98775 17.9401 3.98775 17.8632 3.98776C17.8084 3.98816 17.7537 3.98857 17.6989 3.98898C17.6428 3.98913 17.5867 3.98924 17.5307 3.98932C17.3832 3.98962 17.2358 3.99039 17.0883 3.99126C16.9379 3.99206 16.7874 3.99242 16.6369 3.99281C16.3416 3.99365 16.0464 3.99499 15.7512 3.99664C15.7817 4.02053 15.8123 4.04442 15.8438 4.06903C16.0332 4.22364 16.1641 4.38653 16.1923 4.63367C16.2047 4.90322 16.1529 5.10619 15.9724 5.31065C15.8004 5.46879 15.6314 5.52355 15.4005 5.526C14.8626 5.50054 14.3753 5.30459 13.9977 4.91499C13.8115 4.69745 13.7017 4.45671 13.5961 4.19255C13.5703 4.1279 13.5444 4.06325 13.5178 3.99664C12.4833 3.99664 11.4489 3.99664 10.3831 3.99664C10.4478 4.04836 10.5124 4.10008 10.579 4.15337C10.7478 4.32919 10.7904 4.49986 10.7994 4.74112C10.7898 4.98356 10.7522 5.15439 10.579 5.32886C10.355 5.52275 10.0874 5.53397 9.80256 5.51896C9.34427 5.46404 8.88628 5.24002 8.58298 4.8879C8.38749 4.60949 8.25706 4.31878 8.14967 3.99664C7.10231 3.99664 6.05495 3.99664 4.97585 3.99664C5.0405 4.04836 5.10515 4.10008 5.17176 4.15337C5.3665 4.37037 5.42598 4.54799 5.41911 4.83662C5.39298 5.05081 5.29797 5.21782 5.13993 5.36315C4.84739 5.55817 4.56764 5.53947 4.23137 5.48559C3.74821 5.36142 3.34709 5.10952 3.05588 4.70193C2.96593 4.53629 2.8907 4.36748 2.82078 4.19255C2.79466 4.12725 2.76854 4.06194 2.74241 3.99664C2.58978 3.99093 2.43717 3.98746 2.28446 3.98439C2.24125 3.98275 2.19804 3.98111 2.15352 3.97942C1.89842 3.97272 1.89842 3.97272 1.67636 4.08556ZM1.56692 8.42432C1.5645 10.0156 1.56207 11.6068 1.55958 13.2463C1.55851 13.7491 1.55743 14.2518 1.55633 14.7698C1.55594 15.2198 1.55594 15.2198 1.5557 15.6698C1.55559 15.8705 1.55516 16.0712 1.55451 16.2719C1.55368 16.5278 1.55346 16.7837 1.55363 17.0396C1.5536 17.1336 1.55336 17.2276 1.55291 17.3216C1.55232 17.4484 1.55246 17.5753 1.55279 17.7021C1.55244 17.739 1.5521 17.7758 1.55175 17.8138C1.55323 18.031 1.57795 18.1858 1.68447 18.3768C1.82916 18.4733 1.9002 18.4651 2.07295 18.4654C2.10081 18.4655 2.12867 18.4657 2.15738 18.4658C2.25146 18.4662 2.34553 18.4661 2.4396 18.4659C2.50745 18.4661 2.57529 18.4663 2.64313 18.4665C2.83013 18.4671 3.01711 18.4672 3.20411 18.4671C3.40555 18.4672 3.607 18.4677 3.80845 18.4682C4.24917 18.4691 4.68989 18.4694 5.13061 18.4696C5.40563 18.4697 5.68065 18.47 5.95567 18.4702C6.71667 18.471 7.47766 18.4717 8.23866 18.4718C8.28738 18.4718 8.33611 18.4718 8.38631 18.4718C8.48509 18.4718 8.58388 18.4718 8.68266 18.4718C8.75622 18.4718 8.75622 18.4718 8.83126 18.4719C8.88036 18.4719 8.92946 18.4719 8.98005 18.4719C9.77602 18.472 10.572 18.4731 11.368 18.4745C12.1846 18.476 13.0012 18.4768 13.8178 18.4768C14.2765 18.4768 14.7353 18.4772 15.194 18.4783C15.5846 18.4792 15.9751 18.4795 16.3657 18.4789C16.565 18.4787 16.7644 18.4787 16.9638 18.4796C17.1462 18.4804 17.3285 18.4803 17.5109 18.4795C17.577 18.4793 17.6431 18.4795 17.7092 18.4801C17.7989 18.4808 17.8885 18.4803 17.9781 18.4795C18.028 18.4795 18.0778 18.4796 18.1292 18.4796C18.2949 18.4484 18.3522 18.3908 18.4548 18.2593C18.4978 18.1504 18.4989 18.0485 18.4988 17.9321C18.4989 17.8981 18.499 17.864 18.4991 17.829C18.4989 17.7918 18.4988 17.7546 18.4987 17.7163C18.4987 17.6767 18.4988 17.6371 18.4988 17.5964C18.4989 17.463 18.4987 17.3297 18.4984 17.1963C18.4984 17.0994 18.4984 17.0025 18.4985 16.9056C18.4985 16.6719 18.4983 16.4383 18.498 16.2047C18.4978 15.9345 18.4977 15.6643 18.4977 15.3941C18.4975 14.6806 18.497 13.9671 18.4964 13.2536C18.4956 11.66 18.4948 10.0663 18.494 8.42432C12.9081 8.42432 7.32213 8.42432 1.56692 8.42432Z" fill="#FF7700"/>
<path d="M12.7836 14.1982C13.1065 14.4259 13.3295 14.7144 13.424 15.1018C13.4965 15.5579 13.4219 15.9619 13.1527 16.338C12.8801 16.6713 12.5128 16.8546 12.0872 16.898C11.6795 16.9155 11.3211 16.7964 11.0095 16.5322C10.6977 16.2278 10.5378 15.8884 10.5308 15.4504C10.536 15.0254 10.675 14.6915 10.9658 14.3811C11.4669 13.9119 12.1945 13.8427 12.7836 14.1982Z" fill="#FF7700"/>
<path d="M8.86469 14.1982C9.18758 14.4259 9.41057 14.7144 9.50509 15.1018C9.57753 15.5579 9.50299 15.9619 9.23371 16.338C8.96117 16.6713 8.59381 16.8546 8.16827 16.898C7.76057 16.9155 7.40218 16.7964 7.09058 16.5322C6.77875 16.2278 6.61883 15.8884 6.61182 15.4504C6.61702 15.0254 6.75604 14.6915 7.04681 14.3811C7.54798 13.9119 8.27555 13.8427 8.86469 14.1982Z" fill="#FF7700"/>
<path d="M16.8485 10.2268C17.139 10.4867 17.335 10.8449 17.3666 11.2359C17.3807 11.7156 17.2434 12.0944 16.9195 12.448C16.5848 12.7688 16.2002 12.8325 15.7558 12.8233C15.3839 12.8059 15.1242 12.6576 14.8592 12.4015C14.556 12.0616 14.4374 11.7145 14.4463 11.2616C14.4801 10.8873 14.622 10.5699 14.8894 10.3052C15.4927 9.81823 16.2095 9.78984 16.8485 10.2268Z" fill="#FF7700"/>
<path d="M12.9301 10.2268C13.2205 10.4867 13.4166 10.8449 13.4482 11.2359C13.4623 11.7156 13.3249 12.0944 13.0011 12.448C12.6663 12.7688 12.2818 12.8325 11.8374 12.8233C11.4654 12.8059 11.2057 12.6576 10.9408 12.4015C10.6375 12.0616 10.519 11.7145 10.5278 11.2616C10.5617 10.8873 10.7035 10.5699 10.9709 10.3052C11.5742 9.81823 12.2911 9.78984 12.9301 10.2268Z" fill="#FF7700"/>
<path d="M9.01209 10.2268C9.30256 10.4867 9.49858 10.8449 9.53019 11.2359C9.54428 11.7156 9.40695 12.0944 9.08311 12.448C8.74835 12.7688 8.36378 12.8325 7.9194 12.8233C7.54746 12.8059 7.28774 12.6576 7.02279 12.4015C6.71957 12.0616 6.60099 11.7145 6.60983 11.2616C6.6437 10.8873 6.78555 10.5699 7.05294 10.3052C7.65627 9.81823 8.37309 9.78984 9.01209 10.2268Z" fill="#FF7700"/>
<path d="M4.99489 14.2041C5.30301 14.4246 5.50208 14.7214 5.60361 15.0854C5.61982 15.2019 5.62237 15.3157 5.62075 15.4332C5.62037 15.4642 5.61999 15.4951 5.61959 15.5271C5.60712 15.9386 5.4717 16.1915 5.18652 16.4884C4.87003 16.7833 4.49727 16.913 4.06491 16.899C3.65698 16.8564 3.32334 16.6735 3.04125 16.3798C2.73756 15.9949 2.69662 15.558 2.74325 15.0854C2.84113 14.6838 3.06254 14.3884 3.40936 14.1695C3.90177 13.8796 4.51421 13.9101 4.99489 14.2041Z" fill="#FF7700"/>
<path d="M4.95148 10.1218C5.26113 10.3419 5.52286 10.6323 5.60336 11.0105C5.65645 11.4968 5.6093 11.8891 5.32173 12.2937C5.10176 12.5592 4.80905 12.7517 4.46705 12.8129C4.00944 12.8541 3.63679 12.8011 3.25972 12.5313C3.01535 12.3267 2.80192 12.0338 2.743 11.7158C2.70764 11.2806 2.7099 10.8778 2.97763 10.5123C3.4907 9.90883 4.23983 9.72424 4.95148 10.1218Z" fill="#FF7700"/>
</g>
<defs>
<clipPath id="clip0_326_89">
<rect width="20.0617" height="20.0617" fill="white"/>
</clipPath>
</defs>
</svg>
