<svg width="50" height="50" viewBox="0 0 50 50" fill="none" xmlns="http://www.w3.org/2000/svg">
<path d="M24.9995 21.875C28.4513 21.875 31.2495 19.0768 31.2495 15.625C31.2495 12.1732 28.4513 9.375 24.9995 9.375C21.5477 9.375 18.7495 12.1732 18.7495 15.625C18.7495 19.0768 21.5477 21.875 24.9995 21.875Z" fill="#FF9F1C"/>
<path d="M14.0625 35.9374C14.0625 29.8968 18.9594 24.9999 25 24.9999C31.0406 24.9999 35.9375 29.8968 35.9375 35.9374V39.0624H14.0625V35.9374Z" fill="#FF9F1C"/>
<path d="M12.5 23.4374C15.0888 23.4374 17.1875 21.3388 17.1875 18.7499C17.1875 16.1611 15.0888 14.0624 12.5 14.0624C9.91117 14.0624 7.8125 16.1611 7.8125 18.7499C7.8125 21.3388 9.91117 23.4374 12.5 23.4374Z" fill="#FF9F1C"/>
<path d="M4.6875 34.3749C4.6875 30.0601 8.18516 26.5624 12.5 26.5624C16.8148 26.5624 20.3125 30.0601 20.3125 34.3749V36.7187H4.6875V34.3749Z" fill="#FF9F1C"/>
<path d="M37.5 23.4374C40.0888 23.4374 42.1875 21.3388 42.1875 18.7499C42.1875 16.1611 40.0888 14.0624 37.5 14.0624C34.9112 14.0624 32.8125 16.1611 32.8125 18.7499C32.8125 21.3388 34.9112 23.4374 37.5 23.4374Z" fill="#FF9F1C"/>
<path d="M29.6875 34.3749C29.6875 30.0601 33.1852 26.5624 37.5 26.5624C41.8148 26.5624 45.3125 30.0601 45.3125 34.3749V36.7187H29.6875V34.3749Z" fill="#FF9F1C"/>
</svg>
